<?xml version="1.0" encoding="UTF-8" standalone="no"?>
<svg
   xmlns:dc="http://purl.org/dc/elements/1.1/"
   xmlns:cc="http://creativecommons.org/ns#"
   xmlns:rdf="http://www.w3.org/1999/02/22-rdf-syntax-ns#"
   xmlns:svg="http://www.w3.org/2000/svg"
   xmlns="http://www.w3.org/2000/svg"
   viewBox="0 0 31.992132 27.988268"
   height="27.988268"
   width="31.992132"
   xml:space="preserve"
   id="svg2"
   version="1.1"><metadata
     id="metadata8"><rdf:RDF><cc:Work
         rdf:about=""><dc:format>image/svg+xml</dc:format><dc:type
           rdf:resource="http://purl.org/dc/dcmitype/StillImage" /></cc:Work></rdf:RDF></metadata><defs
     id="defs6"><clipPath
       id="clipPath18"
       clipPathUnits="userSpaceOnUse"><path
         id="path16"
         d="M 0,20.991 H 23.994 V 0 H 0 Z" /></clipPath></defs><g
     transform="matrix(1.3333333,0,0,-1.3333333,0,27.988267)"
     id="g10"><g
       id="g12"><g
         clip-path="url(#clipPath18)"
         id="g14"><g
           transform="translate(23.2441,20.9912)"
           id="g20"><path
             id="path22"
             style="fill:#ffffff;fill-opacity:1;fill-rule:nonzero;stroke:none"
             d="m 0,0 h -22.494 c -0.413,0 -0.75,-0.36 -0.75,-0.801 v -3.42 c 0,-0.423 0.337,-0.769 0.75,-0.769 H 0 c 0.414,0 0.75,0.346 0.75,0.769 v 3.42 C 0.75,-0.36 0.414,0 0,0 m 0,-8 h -22.494 c -0.413,0 -0.75,-0.36 -0.75,-0.801 v -3.421 c 0,-0.424 0.337,-0.769 0.75,-0.769 H 0 c 0.414,0 0.75,0.345 0.75,0.769 v 3.421 C 0.75,-8.36 0.414,-8 0,-8 m 0,-8 h -22.494 c -0.413,0 -0.75,-0.36 -0.75,-0.802 v -3.42 c 0,-0.424 0.337,-0.769 0.75,-0.769 H 0 c 0.414,0 0.75,0.345 0.75,0.769 v 3.42 C 0.75,-16.36 0.414,-16 0,-16" /></g></g></g></g></svg>