<svg xmlns="http://www.w3.org/2000/svg" height="27.988" width="31.992"><defs><clipPath id="a" clipPathUnits="userSpaceOnUse"><path d="M0 20.991h23.994V0H0z"/></clipPath></defs><g clip-path="url(#a)" transform="matrix(1.33333 0 0 -1.33333 0 27.988)"><path d="M23.244 20.991H.75c-.413 0-.75-.36-.75-.8v-3.42c0-.424.337-.77.75-.77h22.494a.76.76 0 0 1 .75.77v3.42c0 .44-.336.8-.75.8m0-8H.75c-.413 0-.75-.36-.75-.8V8.768A.76.76 0 0 1 .75 8h22.494a.76.76 0 0 1 .75.77v3.42c0 .441-.336.801-.75.801m0-8H.75c-.413 0-.75-.36-.75-.802V.77A.76.76 0 0 1 .75 0h22.494a.76.76 0 0 1 .75.77v3.42c0 .441-.336.801-.75.801" fill="#fff"/></g></svg>